:SAMPLES-PER-SECOND 30
:FULLY-SPECIFIED
:DEGREES
97
root  -2.8645 37.7528 7.77079 27.5465 -78.958 -35.6535
RightUpLeg  -19.0779 -17.7538 3.65195
RightLeg  35.9475 -1.66336 -1.56622
RightFoot  -7.37526 -0.00430853 -1.41206
RightToes  0.00048216 0.542163 -0.142577
Spine  16.9648 -3.82176 1.75353
Spine1  -3.9786 -5.96245 19.5577
HEad  -19.1141 -13.896 -8.23507
LeftShoulder1  6.55285 -12.7224 -34.332
LeftArm  -13.092 4.84833 -31.1334
LeftForeArm  72.7461 -73.7285 -29.5324
LeftHand  -0.25398 0.0180481 5.50724
RightShoulder  1.10144 0.573296 20.6439
RightArm  -76.4174 20.745 12.3008
RightForeArm  138.971 69.1978 150.472
RightHand  -12.1544 24.2078 -45.51
LeftUpLeg  -0.784722 -2.42517 6.89276
LeftLeg  60.7039 0.551204 1.70176
LeftFoot  1.75962 0.810136 -7.2204
LeftToes  1.06245e-005 4.65855e-005 -8.18504e-006
98
root  -4.23807 38.0201 7.45939 21.9506 -77.0469 -30.0915
RightUpLeg  -16.2413 -19.5585 3.44262
RightLeg  35.7447 -2.02406 -1.84091
RightFoot  -8.99064 -0.0324439 -1.42391
RightToes  0.00048216 0.542163 -0.142577
Spine  16.9156 -3.32821 3.59825
Spine1  -3.91533 -4.64533 16.6632
HEad  -20.2561 -19.7388 -5.87087
LeftShoulder1  6.77715 -12.9274 -35.1791
LeftArm  -13.5815 6.8668 -29.8763
LeftForeArm  71.3919 -73.6148 -29.5019
LeftHand  -0.25398 0.0180481 5.50724
RightShoulder  1.089 0.626357 19.9324
RightArm  -73.0471 22.9672 10.9901
RightForeArm  129.505 73.8849 139.853
RightHand  -8.75491 18.5558 -40.813
LeftUpLeg  -6.14618 -2.19903 7.57776
LeftLeg  66.7136 2.02275 5.83507
LeftFoot  3.63222 0.637271 -4.94812
LeftToes  1.06245e-005 4.65855e-005 -8.18504e-006
99
root  -5.63317 38.5041 7.21566 16.1086 -76.3229 -24.0137
RightUpLeg  -12.9515 -20.593 2.3127
RightLeg  34.0933 -2.04846 -1.76162
RightFoot  -9.81672 -0.0429941 -1.7123
RightToes  0.00048216 0.542163 -0.142577
Spine  16.2084 -2.6721 4.22916
Spine1  -3.44402 -3.48262 13.4128
HEad  -20.7571 -23.9741 -3.92649
LeftShoulder1  6.99966 -13.1095 -36.0472
LeftArm  -15.0364 9.85579 -28.1605
LeftForeArm  67.995 -72.7038 -27.9707
LeftHand  -0.25398 0.0180481 5.50724
RightShoulder  1.19172 1.09449 19.458
RightArm  -66.8312 27.565 9.26056
RightForeArm  86.2943 79.0162 92.8609
RightHand  -5.02766 11.5081 -34.4055
LeftUpLeg  -10.427 -0.894563 6.79933
LeftLeg  68.5517 2.77519 8.51877
LeftFoot  1.69406 0.342083 -3.10015
LeftToes  1.06245e-005 4.65855e-005 -8.18504e-006
100
root  -7.0001 39.0224 7.02537 11.267 -76.2143 -18.7618
RightUpLeg  -9.56453 -21.6191 0.925767
RightLeg  31.6953 -1.59407 -1.32568
RightFoot  -10.335 -0.0608541 -1.07532
RightToes  0.00048216 0.542163 -0.142577
Spine  15.217 -1.91882 4.92032
Spine1  -2.90483 -2.1839 9.71726
HEad  -19.9043 -27.5926 -2.66015
LeftShoulder1  7.18121 -13.2882 -36.6626
LeftArm  -16.8573 13.0106 -26.2304
LeftForeArm  64.4314 -71.251 -25.6145
LeftHand  -0.25398 0.0180481 5.50724
RightShoulder  1.3149 1.71463 18.6847
RightArm  -60.0666 33.6381 7.46201
RightForeArm  25.3536 68.6595 27.7277
RightHand  -6.03881 13.7588 -35.1546
LeftUpLeg  -13.8376 0.421818 5.51741
LeftLeg  66.7356 2.60603 7.41499
LeftFoot  -0.204823 0.356114 -3.656
LeftToes  1.06245e-005 4.65855e-005 -8.18504e-006
101
root  -8.32151 39.5045 6.85955 7.41035 -76.1975 -14.4568
RightUpLeg  -6.21528 -23.2334 -0.509983
RightLeg  29.04 -0.372421 -0.486481
RightFoot  -9.89557 -0.0647721 -0.192828
RightToes  0.00048216 0.542163 -0.142577
Spine  14.5757 -0.890584 5.83133
Spine1  -2.87669 -0.576734 6.22276
HEad  -18.4337 -31.3627 -2.40211
LeftShoulder1  7.35502 -13.4698 -37.2101
LeftArm  -18.156 15.4918 -23.9694
LeftForeArm  61.5511 -69.8213 -23.5982
LeftHand  -0.25398 0.0180481 5.50724
RightShoulder  1.42965 2.23164 18.3995
RightArm  -59.6445 37.5581 5.6608
RightForeArm  11.4563 55.4684 14.6603
RightHand  -14.3732 27.3329 -47.8851
LeftUpLeg  -16.4494 1.17657 4.22317
LeftLeg  62.1248 1.76613 4.267
LeftFoot  -1.08695 0.508403 -5.58952
LeftToes  1.06245e-005 4.65855e-005 -8.18504e-006
102
root  -9.59418 39.9239 6.73079 4.03711 -75.9911 -10.381
RightUpLeg  -3.32782 -25.1727 -1.985
RightLeg  26.6052 1.20916 0.45056
RightFoot  -8.98091 -0.060132 -0.0239535
RightToes  0.00048216 0.542163 -0.142577
Spine  14.2181 0.283152 5.94684
Spine1  -3.58073 0.78325 4.44253
HEad  -17.0417 -33.6751 -4.11006
LeftShoulder1  7.54934 -13.6472 -37.8716
LeftArm  -18.7656 17.7843 -21.0837
LeftForeArm  59.6642 -69.1468 -22.8459
LeftHand  -0.25398 0.0180481 5.50724
RightShoulder  1.29957 1.6768 18.6208
RightArm  -67.7117 39.6274 3.58736
RightForeArm  15.4332 59.5417 19.031
RightHand  -20.006 33.1437 -55.726
LeftUpLeg  -18.5227 1.57015 2.80995
LeftLeg  55.4125 1.06726 2.14221
LeftFoot  -1.7814 0.574466 -6.73009
LeftToes  1.06245e-005 4.65855e-005 -8.18504e-006
103
root  -10.8294 40.2289 6.67773 1.09769 -75.7351 -6.29146
RightUpLeg  -1.11243 -26.1666 -3.39332
RightLeg  24.4737 1.83312 1.18834
RightFoot  -8.85821 -0.0585505 -0.06047
RightToes  0.00048216 0.542163 -0.142577
Spine  13.3505 0.970929 4.99666
Spine1  -4.52773 1.18979 4.40741
HEad  -15.0625 -31.7098 -7.63652
LeftShoulder1  7.57825 -13.7025 -37.8968
LeftArm  -19.2146 20.7667 -17.6297
LeftForeArm  59.0388 -69.2901 -23.1473
LeftHand  -0.25398 0.0180481 5.50724
RightShoulder  0.677759 -0.637103 16.7219
RightArm  -75.7719 44.3425 0.654768
RightForeArm  35.4395 72.7341 34.3571
RightHand  -9.32149 19.3867 -40.3881
LeftUpLeg  -20.3012 1.91764 1.16343
LeftLeg  47.2161 1.27448 1.86136
LeftFoot  -2.15842 0.54935 -6.67526
LeftToes  1.06245e-005 4.65855e-005 -8.18504e-006
104
root  -12.0582 40.3989 6.70453 -1.4427 -76.0552 -2.57355
RightUpLeg  0.94618 -24.8333 -4.59772
RightLeg  22.3348 0.690499 1.74775
RightFoot  -9.5386 -0.0714344 0.446777
RightToes  0.00048216 0.542163 -0.142577
Spine  11.8545 0.877818 4.68454
Spine1  -5.294 1.00648 3.21284
HEad  -11.4782 -25.4329 -10.5994
LeftShoulder1  7.23642 -13.5744 -36.2747
LeftArm  -19.8001 23.582 -13.9039
LeftForeArm  58.7206 -69.0314 -22.8102
LeftHand  -0.25398 0.0180481 5.50724
RightShoulder  -0.0802845 -4.02349 10.4359
RightArm  -81.2208 53.2301 -6.34899
RightForeArm  45.2146 75.3456 42.5032
RightHand  -2.73198 5.55716 -28.6173
LeftUpLeg  -21.3331 2.60647 -0.536501
LeftLeg  38.1142 2.23953 2.23693
LeftFoot  -1.9884 0.528847 -6.31642
LeftToes  1.06245e-005 4.65855e-005 -8.18504e-006
105
root  -13.2961 40.4834 6.77795 -4.13161 -77.51 0.655701
RightUpLeg  3.44137 -21.6666 -5.46954
RightLeg  20.0934 -1.01183 2.10329
RightFoot  -10.0635 -0.0798859 1.01981
RightToes  0.00048216 0.542163 -0.142577
Spine  10.7647 0.784956 7.03497
Spine1  -6.26785 1.59829 -2.0176
HEad  -6.20215 -18.7219 -11.0485
LeftShoulder1  6.66813 -13.4453 -33.3002
LeftArm  -20.5047 23.7456 -10.2976
LeftForeArm  56.9883 -66.8862 -20.2955
LeftHand  -0.25398 0.0180481 5.50724
RightShoulder  -0.351451 -7.48208 0.516478
RightArm  -88.85 60.5874 -19.204
RightForeArm  23.7739 65.4833 23.7846
RightHand  -7.82934 16.9942 -39.9524
LeftUpLeg  -20.9153 4.50832 -2.11214
LeftLeg  28.4649 2.77011 2.01417
LeftFoot  -1.67406 0.515343 -5.97444
LeftToes  1.06245e-005 4.65855e-005 -8.18504e-006
106
root  -14.5421 40.5188 6.8787 -7.51683 -79.7348 3.88795
RightUpLeg  6.31359 -17.9483 -6.00515
RightLeg  18.1015 -2.46716 2.17757
RightFoot  -10.3909 -0.0808871 1.25803
RightToes  0.00048216 0.542163 -0.142577
Spine  10.8361 1.61042 11.7583
Spine1  -7.70495 3.64602 -10.4015
HEad  -0.786665 -15.1259 -9.54982
LeftShoulder1  6.18 -13.5439 -30.1995
LeftArm  -22.0078 19.8314 -7.92733
LeftForeArm  54.567 -63.0649 -16.7256
LeftHand  -0.25398 0.0180481 5.50724
RightShoulder  0.000504782 -10.7912 -9.62447
RightArm  -97.5261 63.2719 -32.6947
RightForeArm  20.9197 49.1801 11.3259
RightHand  -8.80151 20.0318 -39.0101
LeftUpLeg  -19.3005 8.14874 -3.58774
LeftLeg  18.9602 1.73348 0.923984
LeftFoot  -1.26871 0.502195 -5.60948
LeftToes  1.06245e-005 4.65855e-005 -8.18504e-006
107
root  -15.8044 40.4891 7.01287 -11.0122 -81.551 7.04652
RightUpLeg  9.18715 -15.3224 -6.50522
RightLeg  16.6852 -3.46754 2.18662
RightFoot  -11.044 -0.0791299 1.9812
RightToes  0.00048216 0.542163 -0.142577
Spine  11.5127 3.05969 16.5585
Spine1  -8.84203 6.25503 -18.2644
HEad  2.81298 -14.1665 -7.95067
LeftShoulder1  5.89735 -13.6723 -28.2393
LeftArm  -24.9945 13.4168 -7.38813
LeftForeArm  53.5346 -59.9174 -14.4061
LeftHand  -0.25398 0.0180481 5.50724
RightShoulder  0.706727 -14.5462 -16.8661
RightArm  -110.437 64.6402 -47.2216
RightForeArm  22.7484 32.043 5.64325
RightHand  -10.8282 23.9574 -41.3425
LeftUpLeg  -17.4298 9.93894 -4.00392
LeftLeg  11.0396 2.34787 -0.953324
LeftFoot  -0.90653 0.536906 -5.8187
LeftToes  1.06245e-005 4.65855e-005 -8.18504e-006
108
root  -17.0874 40.3955 7.18919 -11.7283 -82.3465 7.45908
RightUpLeg  12.0243 -14.4004 -7.12184
RightLeg  15.7762 -3.9249 2.47565
RightFoot  -11.4796 -0.0744259 3.5798
RightToes  0.00048216 0.542163 -0.142577
Spine  11.6542 4.33913 20.081
Spine1  -8.68131 8.41288 -23.2987
HEad  4.21306 -13.4252 -7.20296
LeftShoulder1  5.78635 -13.4465 -28.0418
LeftArm  -28.7359 7.18106 -7.80522
LeftForeArm  53.6965 -59.4165 -14.088
LeftHand  -0.25398 0.0180481 5.50724
RightShoulder  1.48802 -18.2061 -21.056
RightArm  -128.631 65.4532 -64.9786
RightForeArm  24.4787 17.8714 1.3452
RightHand  -11.6188 25.6022 -41.9158
LeftUpLeg  -15.5838 5.46444 -2.2016
LeftLeg  5.51594 9.441 -3.61469
LeftFoot  -0.988589 0.589554 -6.42842
LeftToes  1.06245e-005 4.65855e-005 -8.18504e-006
109
root  -18.4136 40.2427 7.39915 -8.63545 -82.527 3.89914
RightUpLeg  14.8843 -14.8071 -7.84105
RightLeg  15.6479 -3.39707 2.87764
RightFoot  -11.1434 -0.0844678 4.93424
RightToes  0.00048216 0.542163 -0.142577
Spine  11.1085 5.25795 22.4486
Spine1  -7.19386 10.1147 -25.8347
HEad  4.25274 -12.102 -7.02444
LeftShoulder1  5.81127 -13.0696 -28.9894
LeftArm  -31.7961 2.44438 -8.58727
LeftForeArm  53.7601 -61.1966 -15.3315
LeftHand  -0.25398 0.0180481 5.50724
RightShoulder  1.87135 -19.5463 -22.7229
RightArm  -140.326 65.3977 -78.7296
RightForeArm  21.1693 10.0397 -3.10126
RightHand  -10.0601 24.3139 -38.1304
LeftUpLeg  -14.1854 3.57568 -1.57875
LeftLeg  3.02933 14.2398 -4.7946
LeftFoot  -0.896992 0.492536 -5.33718
LeftToes  1.06245e-005 4.65855e-005 -8.18504e-006
